<svg width="23" height="23" viewBox="0 0 23 23" fill="none" xmlns="http://www.w3.org/2000/svg">
<g clip-path="url(#clip0)">
<path d="M15.6743 3.09613H7.38098C6.23818 3.09613 5.30768 4.02582 5.30768 5.16944V22.5853C5.30768 22.7528 5.40887 22.9046 5.56394 22.9676C5.71901 23.0331 5.89733 22.9967 6.01594 22.8781L11.5276 17.3664L17.0393 22.8789C17.1189 22.9577 17.2251 23 17.3329 23C17.386 23 17.4399 22.9901 17.4913 22.9685C17.6464 22.9046 17.7476 22.7529 17.7476 22.5853V5.16947C17.7476 4.02664 16.8171 3.09613 15.6743 3.09613ZM16.9183 21.5835L11.8212 16.4864C11.7399 16.406 11.6338 16.3653 11.5276 16.3653C11.4215 16.3653 11.3153 16.406 11.2341 16.4873L6.13699 21.5843V5.16944C6.13699 4.48357 6.69512 3.92544 7.38098 3.92544H15.6742C16.3601 3.92544 16.9182 4.48357 16.9182 5.16944V21.5835H16.9183Z" fill="white"/>
</g>
<defs>
<clipPath id="clip0">
<rect width="23" height="23" fill="white"/>
</clipPath>
</defs>
</svg>
