<svg width="22" height="21" viewBox="0 0 22 21" fill="none" xmlns="http://www.w3.org/2000/svg">
<path d="M11 19.8317C11.3132 19.8317 11.6152 19.7234 11.8505 19.5266C12.7392 18.7848 13.5961 18.0877 14.3521 17.4728L14.3559 17.4696C16.5724 15.6667 18.4863 14.1097 19.818 12.5759C21.3066 10.8613 22 9.23557 22 7.45956C22 5.73402 21.3801 4.1421 20.2547 2.97684C19.1159 1.7978 17.5532 1.14844 15.8541 1.14844C14.5842 1.14844 13.4212 1.53168 12.3975 2.28742C11.8809 2.6689 11.4126 3.13577 11 3.68035C10.5873 3.13577 10.1192 2.6689 9.60236 2.28742C8.57867 1.53168 7.41566 1.14844 6.14573 1.14844C4.44679 1.14844 2.88398 1.7978 1.74514 2.97684C0.619728 4.1421 4.00543e-05 5.73402 4.00543e-05 7.45956C4.00543e-05 9.23557 0.693245 10.8613 2.18188 12.5758C3.51357 14.1097 5.42735 15.6665 7.64343 17.4693C8.40075 18.0852 9.25895 18.7834 10.1497 19.527C10.3849 19.7234 10.687 19.8317 11 19.8317ZM15.8541 2.37859C17.189 2.37859 18.4153 2.88712 19.3074 3.81061C20.2128 4.74804 20.7114 6.04388 20.7114 7.45956C20.7114 8.95326 20.1299 10.2892 18.8259 11.791C17.5655 13.2428 15.6908 14.7677 13.5202 16.5335L13.5162 16.5367C12.7574 17.154 11.8972 17.8538 11.0019 18.6011C10.1012 17.8524 9.23965 17.1514 8.4793 16.5331C6.30888 14.7674 4.43437 13.2428 3.17402 11.791C1.87018 10.2892 1.2886 8.95326 1.2886 7.45956C1.2886 6.04388 1.78727 4.74804 2.69263 3.81061C3.58457 2.88712 4.81102 2.37859 6.14573 2.37859C7.12361 2.37859 8.02142 2.67531 8.81416 3.26042C9.52062 3.78209 10.0127 4.44154 10.3013 4.90297C10.4497 5.14025 10.7108 5.28188 11 5.28188C11.2892 5.28188 11.5504 5.14025 11.6988 4.90297C11.9871 4.44154 12.4792 3.78209 13.1859 3.26042C13.9786 2.67531 14.8764 2.37859 15.8541 2.37859Z" fill="white"/>
</svg>
