<svg width="135" height="28" viewBox="0 0 135 28" fill="none" xmlns="http://www.w3.org/2000/svg">
<path d="M6.452 9L7.1 11.628C8.108 10.572 9.104 9.792 10.088 9.288C11.072 8.76 12.224 8.496 13.544 8.496C15.968 8.496 17.528 9.384 18.224 11.16C19.136 10.272 20.06 9.612 20.996 9.18C21.956 8.724 23.036 8.496 24.236 8.496C27.692 8.496 29.42 10.176 29.42 13.536V27H21.896V15.948C21.896 15.54 21.812 15.264 21.644 15.12C21.476 14.952 21.164 14.868 20.708 14.868C20.444 14.868 20.156 14.892 19.844 14.94C19.532 14.988 19.124 15.108 18.62 15.3V27H11.348V15.948C11.348 15.228 10.94 14.868 10.124 14.868C9.836 14.868 9.548 14.892 9.26 14.94C8.972 14.988 8.576 15.096 8.072 15.264V27H0.548V9H6.452ZM37.9076 0.755999C39.3716 0.755999 40.1036 1.5 40.1036 2.988V4.824C40.1036 6.312 39.3716 7.056 37.9076 7.056H34.7036C33.2396 7.056 32.5076 6.312 32.5076 4.824V2.988C32.5076 1.5 33.2396 0.755999 34.7036 0.755999H37.9076ZM40.0676 9V27H32.5436V9H40.0676ZM49.202 9L49.886 11.628C51.014 10.572 52.178 9.792 53.378 9.288C54.578 8.76 55.754 8.496 56.906 8.496H57.95L57.302 15.408H55.394C54.818 15.408 54.182 15.432 53.486 15.48C52.79 15.528 51.914 15.624 50.858 15.768V27H43.298V9H49.202ZM69.8044 8.496C71.5084 8.496 72.9364 8.724 74.0884 9.18C75.2644 9.612 76.1524 10.368 76.7524 11.448C77.3764 12.504 77.6884 13.968 77.6884 15.84V27H71.6764L70.9924 24.48C70.3924 25.248 69.5884 25.944 68.5804 26.568C67.5724 27.192 66.3004 27.504 64.7644 27.504C63.6604 27.504 62.6284 27.312 61.6684 26.928C60.7324 26.544 59.9764 25.98 59.4004 25.236C58.8484 24.468 58.5724 23.52 58.5724 22.392V20.592C58.5724 19.152 59.1004 18.024 60.1564 17.208C61.2364 16.368 62.6884 15.948 64.5124 15.948H70.1284V15.804C70.1044 15.18 69.9364 14.724 69.6244 14.436C69.3364 14.148 68.7964 14.004 68.0044 14.004C67.0684 14.004 65.9164 14.016 64.5484 14.04C63.2044 14.064 61.7644 14.112 60.2284 14.184L59.5444 9.396C60.4564 9.228 61.5364 9.084 62.7844 8.964C64.0564 8.82 65.3164 8.712 66.5644 8.64C67.8124 8.544 68.8924 8.496 69.8044 8.496ZM67.4284 22.392C67.8604 22.392 68.3044 22.308 68.7604 22.14C69.2164 21.972 69.6724 21.756 70.1284 21.492V19.584H67.2844C66.8284 19.584 66.4804 19.692 66.2404 19.908C66.0244 20.1 65.9164 20.364 65.9164 20.7V21.276C65.9164 21.588 66.0364 21.852 66.2764 22.068C66.5404 22.284 66.9244 22.392 67.4284 22.392ZM93.5228 8.496C96.0428 8.496 97.8068 9.228 98.8148 10.692C99.8228 12.132 100.327 14.496 100.327 17.784C100.327 19.008 100.195 20.196 99.9308 21.348C99.6908 22.476 99.2348 23.508 98.5628 24.444C97.8908 25.356 96.9188 26.088 95.6468 26.64C94.3748 27.168 92.7068 27.432 90.6428 27.432C89.9948 27.432 89.2028 27.396 88.2668 27.324C87.3308 27.276 86.3708 27.192 85.3868 27.072C84.4028 26.952 83.4788 26.796 82.6148 26.604C81.7748 26.412 81.0908 26.184 80.5628 25.92V1.8H88.1228L88.1948 6.804C88.2188 7.524 88.1828 8.256 88.0868 9C87.9908 9.744 87.8468 10.452 87.6548 11.124C88.3988 10.428 89.2748 9.816 90.2828 9.288C91.2908 8.76 92.3708 8.496 93.5228 8.496ZM90.3548 14.148C89.8988 14.148 89.4908 14.196 89.1308 14.292C88.7948 14.388 88.4588 14.496 88.1228 14.616V22.212C88.5548 22.284 88.9868 22.332 89.4188 22.356C89.8508 22.38 90.2108 22.38 90.4988 22.356C91.0268 22.308 91.4348 22.164 91.7228 21.924C92.0108 21.684 92.2148 21.252 92.3348 20.628C92.4788 19.98 92.5508 19.044 92.5508 17.82C92.5508 16.788 92.4908 16.02 92.3708 15.516C92.2508 14.988 92.0228 14.628 91.6868 14.436C91.3748 14.244 90.9308 14.148 90.3548 14.148ZM110.413 1.8V20.448C110.413 21.312 111.013 21.744 112.213 21.744H113.437L114.265 26.568C113.905 26.784 113.389 26.952 112.717 27.072C112.069 27.216 111.397 27.324 110.701 27.396C110.029 27.468 109.453 27.504 108.973 27.504C107.077 27.504 105.589 27.06 104.509 26.172C103.429 25.284 102.889 24.048 102.889 22.464V1.8H110.413ZM125.331 8.496C128.715 8.496 131.115 9.036 132.531 10.116C133.947 11.196 134.667 12.792 134.691 14.904C134.715 16.584 134.211 17.796 133.179 18.54C132.171 19.284 130.347 19.656 127.707 19.656H123.207C123.351 20.4 123.639 20.916 124.071 21.204C124.527 21.492 125.235 21.636 126.195 21.636C126.915 21.636 127.923 21.612 129.219 21.564C130.539 21.516 131.967 21.408 133.503 21.24L134.187 25.776C132.915 26.424 131.535 26.856 130.047 27.072C128.559 27.312 126.999 27.432 125.367 27.432C122.871 27.432 120.867 27.084 119.355 26.388C117.843 25.692 116.751 24.66 116.079 23.292C115.431 21.9 115.107 20.184 115.107 18.144C115.107 15.768 115.443 13.884 116.115 12.492C116.787 11.076 117.867 10.056 119.355 9.432C120.867 8.808 122.859 8.496 125.331 8.496ZM125.547 13.356C124.635 13.332 123.999 13.476 123.639 13.788C123.303 14.1 123.111 14.868 123.063 16.092H125.583C126.399 16.092 126.915 16.02 127.131 15.876C127.347 15.708 127.455 15.324 127.455 14.724C127.455 14.148 127.311 13.776 127.023 13.608C126.735 13.44 126.243 13.356 125.547 13.356Z" />
</svg>
