<svg width="32" height="36" viewBox="0 0 32 36" fill="none" xmlns="http://www.w3.org/2000/svg">
<path opacity="0.5" d="M28.5405 25.6472C30.4511 25.6472 32 24.2426 32 22.51C32 20.7773 30.4511 19.3727 28.5405 19.3727C26.6299 19.3727 25.0811 20.7773 25.0811 22.51C25.0811 24.2426 26.6299 25.6472 28.5405 25.6472Z" fill="#DE8E7C"/>
<path opacity="0.5" d="M3.45947 25.6472C1.54885 25.6472 0 24.2426 0 22.51C0 20.7773 1.54885 19.3727 3.45947 19.3727C5.37004 19.3727 6.91893 20.7773 6.91893 22.51C6.91893 24.2426 5.37004 25.6472 3.45947 25.6472Z" fill="#DE8E7C"/>
<path d="M3.02698 14.8235C3.02698 8.32605 8.83515 3.05884 15.9999 3.05884C23.1647 3.05884 28.9729 8.32605 28.9729 14.8235V24.2353C28.9729 30.7328 23.1647 36 15.9999 36C8.83515 36 3.02698 30.7328 3.02698 24.2353V14.8235Z" fill="#F4D5CC"/>
<path d="M29.4054 14.7452L28.7135 10.9804H25.9459L26.3784 14.5098C26.3784 14.5098 27.6002 15.859 28.1081 16.8627C28.9371 18.5012 28.9729 21.4117 28.9729 21.4117L29.4054 14.7452Z" fill="#868686"/>
<path d="M2.5946 14.7452L3.2865 10.9804H6.05406L5.62163 14.5098C5.62163 14.5098 4.39975 15.859 3.8919 16.8627C3.06284 18.5012 3.02704 21.4117 3.02704 21.4117L2.5946 14.7452Z" fill="#868686"/>
<path fill-rule="evenodd" clip-rule="evenodd" d="M29.4055 14.7451C29.4055 14.7451 29.4055 9.80396 16.0001 9.80396C2.59471 9.80396 2.59471 14.7451 2.59471 14.7451C2.59471 11.5949 1.75734 8.31322 3.892 5.8824C6.46074 2.95727 12.3394 1.17651 16.0001 1.17651C19.6771 1.17651 25.5378 2.93573 28.1082 5.8824C30.2233 8.3071 29.4055 11.6118 29.4055 14.7451Z" fill="#272727"/>
<path d="M5.24836 3.14827L4.32434 5.87683L15.6696 4.52058L28.5406 6.90196V5.77181L27.6272 5.40856V4.52058H26.4646V3.14827H24.9699L24.6378 2.09884H23.3092L22.5203 1.04942L21.1502 1.37232L20.735 0.726522H19.3233V0L17.4135 0.726522L16.9152 0L16.0849 0.726522L15.2544 0L13.6767 0.726522L12.6802 0L11.6008 0.726522H10.8535L10.023 1.37232L9.69091 0.726522L8.27928 2.09884L7.36581 1.77594L6.16175 3.35008L5.24836 3.14827Z" fill="#272727"/>
<path d="M19.4957 16.9302L24.3389 17.7145C24.7621 17.783 25.1664 17.5274 25.242 17.1437C25.3176 16.7599 25.0358 16.3932 24.6126 16.3247L19.7693 15.5404C19.3462 15.4718 18.9418 15.7274 18.8663 16.1112C18.7907 16.495 19.0725 16.8616 19.4957 16.9302Z" fill="#393939"/>
<path d="M7.66119 17.7145L12.5044 16.9302C12.9276 16.8616 13.2094 16.495 13.1339 16.1112C13.0583 15.7274 12.654 15.4718 12.2308 15.5404L7.38753 16.3247C6.96434 16.3932 6.68253 16.7599 6.7581 17.1437C6.83367 17.5274 7.238 17.783 7.66119 17.7145Z" fill="#393939"/>
<path d="M20.1513 20.7843H22.7459C23.1758 20.7843 23.5243 20.4683 23.5243 20.0784C23.5243 19.6886 23.1758 19.3725 22.7459 19.3725H20.1513C19.7214 19.3725 19.3729 19.6886 19.3729 20.0784C19.3729 20.4683 19.7214 20.7843 20.1513 20.7843Z" fill="black"/>
<path d="M9.25409 20.7843H11.8487C12.2786 20.7843 12.6271 20.4683 12.6271 20.0784C12.6271 19.6886 12.2786 19.3725 11.8487 19.3725H9.25409C8.8242 19.3725 8.47571 19.6886 8.47571 20.0784C8.47571 20.4683 8.8242 20.7843 9.25409 20.7843Z" fill="black"/>
<path d="M19.1073 28.8984L19.0751 28.9134C19.0537 28.9231 19.0265 28.935 18.9937 28.9487L18.9538 28.9653C18.7864 29.0336 18.5859 29.103 18.3536 29.1685C17.677 29.3593 16.8893 29.4746 16 29.4746C15.1107 29.4746 14.323 29.3593 13.6464 29.1685C13.432 29.108 13.2446 29.0442 13.0854 28.981L13.0462 28.9653C12.9526 28.927 12.8948 28.9 12.8744 28.8893C12.5562 28.7221 12.1488 28.8204 11.9644 29.109C11.7837 29.3917 11.8841 29.752 12.1874 29.9238L12.2066 29.9343C12.2231 29.9429 12.2469 29.9548 12.2779 29.9695L12.294 29.9771C12.3532 30.0048 12.4218 30.0349 12.4997 30.0667C12.7152 30.1546 12.9661 30.2415 13.2509 30.3218C14.0518 30.5476 14.9722 30.6824 16 30.6824C17.0278 30.6824 17.9482 30.5476 18.7491 30.3218C19.0339 30.2415 19.2847 30.1546 19.5003 30.0667C19.5652 30.0402 19.6237 30.0149 19.6756 29.9912L19.706 29.9771C19.745 29.9589 19.7741 29.9444 19.7934 29.9343C20.1116 29.7671 20.22 29.3976 20.0356 29.109C19.8587 28.8322 19.4766 28.7304 19.1649 28.8701L19.1451 28.8794L19.1073 28.8984Z" fill="#C99584"/>
<path d="M15.2154 21.3557C14.6484 22.127 14.2271 23.2254 14.2271 24.1274C14.2271 25.4352 15.0882 26.3137 16.6919 26.3137V24.9804C15.9413 24.9804 15.6973 24.7315 15.6973 24.1274C15.6973 23.5098 16.0229 22.6609 16.4387 22.0953L15.2154 21.3557Z" fill="#EBBAAA"/>
</svg>
